<?xml version="1.0" ?>

<!-- Uploaded to: SVG Repo, www.svgrepo.com, Generator: SVG Repo Mixer Tools -->
<svg width="800px" height="800px" viewBox="0 0 512 512" id="Layer_1" version="1.1" xml:space="preserve" xmlns="http://www.w3.org/2000/svg" xmlns:xlink="http://www.w3.org/1999/xlink">

<style type="text/css">
	.st0{fill:#2B79C2;}
	.st1{fill:#3B4652;}
</style>

<g>

<g>

<path class="st1" d="M446.5,199.2c-1,0-2.1-0.2-3.1-0.7c-3.5-1.7-4.9-5.9-3.2-9.4c14.1-28.4,21.3-59,21.3-91    c0-22.6-3.7-44.8-10.9-66c-1.2-3.7,0.7-7.6,4.4-8.9c3.7-1.2,7.6,0.7,8.9,4.4c7.7,22.7,11.6,46.4,11.6,70.5    c0,34.1-7.6,66.8-22.7,97.2C451.6,197.8,449.1,199.2,446.5,199.2z M65.5,199.2c-2.6,0-5.1-1.4-6.3-3.9    c-15.1-30.4-22.7-63.1-22.7-97.2c0-24.1,3.9-47.8,11.6-70.5c1.2-3.7,5.2-5.6,8.9-4.4c3.7,1.2,5.6,5.2,4.4,8.9    c-7.2,21.2-10.9,43.4-10.9,66c0,31.9,7.2,62.5,21.3,91c1.7,3.5,0.3,7.7-3.2,9.4C67.6,199,66.5,199.2,65.5,199.2z"/>

</g>

<g>

<path class="st1" d="M401.3,176.8c-1,0-2.1-0.2-3.1-0.7c-3.5-1.7-4.9-5.9-3.2-9.4c10.6-21.5,16-44.6,16-68.6    c0-17-2.8-33.8-8.2-49.8c-1.2-3.7,0.7-7.6,4.4-8.9c3.7-1.2,7.6,0.7,8.9,4.4c5.9,17.4,8.9,35.7,8.9,54.3c0,26.2-5.9,51.4-17.5,74.8    C406.3,175.4,403.8,176.8,401.3,176.8z M110.7,176.8c-2.6,0-5.1-1.4-6.3-3.9C92.9,149.5,87,124.3,87,98.1c0-18.6,3-36.8,8.9-54.3    c1.2-3.7,5.2-5.6,8.9-4.4c3.7,1.2,5.6,5.2,4.4,8.9c-5.4,16-8.2,32.7-8.2,49.8c0,24.1,5.4,47.1,16,68.6c1.7,3.5,0.3,7.7-3.2,9.4    C112.9,176.6,111.8,176.8,110.7,176.8z"/>

</g>

<g>

<path class="st1" d="M356,154.5c-1,0-2.1-0.2-3.1-0.7c-3.5-1.7-4.9-5.9-3.2-9.4c7.2-14.5,10.8-30,10.8-46.2    c0-11.5-1.9-22.8-5.5-33.5c-1.2-3.7,0.7-7.6,4.4-8.9c3.7-1.2,7.6,0.7,8.9,4.4c4.2,12.2,6.3,25,6.3,38c0,18.4-4.1,36-12.3,52.5    C361,153,358.5,154.5,356,154.5z M156,154.5c-2.6,0-5.1-1.4-6.3-3.9c-8.1-16.4-12.3-34.1-12.3-52.5c0-13,2.1-25.8,6.3-38    c1.2-3.7,5.2-5.6,8.9-4.4c3.7,1.2,5.6,5.2,4.4,8.9c-3.7,10.8-5.5,22.1-5.5,33.5c0,16.2,3.6,31.8,10.8,46.2    c1.7,3.5,0.3,7.7-3.2,9.4C158.1,154.2,157.1,154.5,156,154.5z"/>

</g>

<path class="st0" d="M317,98.1c0,9.7-2.3,18.9-6.3,27c-4.5,9.1-11.2,17-19.5,22.8c-9.9,7.1-22.1,11.2-35.2,11.2   c-13.1,0-25.3-4.1-35.2-11.2c-8.2-5.8-15-13.7-19.5-22.8c-4-8.1-6.3-17.3-6.3-27c0-6.9,1.1-13.4,3.2-19.6   c8.2-24.1,30.9-41.4,57.8-41.4s49.6,17.3,57.8,41.4C315.8,84.7,317,91.3,317,98.1z"/>

<g>

<polygon class="st1" points="332,269.2 310.8,206.2 201.2,206.2 180,269.2   "/>

<polygon class="st0" points="357.9,346.2 336.7,283.2 175.3,283.2 154.1,346.2   "/>

<polygon class="st1" points="378.3,407 362.6,360.2 149.4,360.2 133.7,407 106.1,489.1 172.6,489.1 192.7,407 319.3,407     339.4,489.1 405.9,489.1   "/>

<path class="st0" d="M306.1,192.2H205.9l10.3-30.5c11.9,7.5,25.6,11.5,39.8,11.5s27.9-4,39.8-11.5L306.1,192.2z"/>

</g>

</g>

</svg>