<?xml version="1.0" encoding="iso-8859-1"?>
<!-- Uploaded to: SVG Repo, www.svgrepo.com, Generator: SVG Repo Mixer Tools -->
<svg version="1.1" id="Layer_1" xmlns="http://www.w3.org/2000/svg" xmlns:xlink="http://www.w3.org/1999/xlink" 
	 viewBox="0 0 511.981 511.981" xml:space="preserve">
<path style="fill:#656D78;" d="M458.635,0H53.33c-5.891,0-10.672,4.772-10.672,10.663v490.646c0,5.891,4.781,10.672,10.672,10.672
	h405.305c5.906,0,10.688-4.781,10.688-10.672V10.663C469.322,4.772,464.541,0,458.635,0z"/>
<g>
	<path style="fill:#434A54;" d="M426.636,74.66c-5.875,0-10.656,4.773-10.656,10.664v63.998c0,5.891,4.781,10.664,10.656,10.664
		c5.904,0,10.686-4.773,10.686-10.664V85.324C437.322,79.434,432.541,74.66,426.636,74.66z"/>
	<path style="fill:#434A54;" d="M426.636,341.314c-5.875,0-10.656,4.781-10.656,10.672v63.998c0,5.89,4.781,10.655,10.656,10.655
		c5.904,0,10.686-4.766,10.686-10.655v-63.998C437.322,346.095,432.541,341.314,426.636,341.314z"/>
</g>
<rect x="85.33" y="42.662" style="fill:#ED5564;" width="341.31" height="426.65"/>
<path style="fill:#FFCE54;" d="M371.95,325.002L265.306,133.471c-1.883-3.383-5.453-5.484-9.32-5.484
	c-3.867,0-7.438,2.102-9.32,5.484L139.779,325.455c-1.844,3.312-1.797,7.344,0.125,10.594c1.914,3.266,5.414,5.266,9.195,5.266
	h213.788l0,0c5.906,0,10.656-4.781,10.656-10.672C373.544,328.58,372.95,326.642,371.95,325.002z"/>
<path style="fill:#434A54;" d="M255.97,309.316c-1.602,0-3.234-0.359-4.766-1.125c-5.266-2.641-7.398-9.047-4.766-14.312
	l13.617-27.234l-25.406,0.016c-3.695,0-7.124-1.922-9.069-5.062c-1.945-3.148-2.117-7.077-0.469-10.382l21.335-42.663
	c2.633-5.273,9.039-7.406,14.312-4.773c5.266,2.633,7.406,9.039,4.766,14.312l-13.609,27.225h25.414
	c3.687,0,7.124,1.914,9.062,5.062c1.938,3.141,2.125,7.069,0.469,10.374l-21.343,42.671
	C263.65,307.16,259.885,309.316,255.97,309.316z"/>
<path style="fill:#DA4453;" d="M330.639,405.312H181.324c-5.89,0-10.671-4.781-10.671-10.672c0-5.89,4.781-10.655,10.671-10.655
	h149.315c5.906,0,10.688,4.766,10.688,10.655C341.327,400.531,336.546,405.312,330.639,405.312z"/>
</svg>