<?xml version="1.0" encoding="iso-8859-1"?>
<!-- Uploaded to: SVG Repo, www.svgrepo.com, Generator: SVG Repo Mixer Tools -->
<svg height="800px" width="800px" version="1.1" id="Layer_1" xmlns="http://www.w3.org/2000/svg" xmlns:xlink="http://www.w3.org/1999/xlink" 
	 viewBox="0 0 511.982 511.982" xml:space="preserve">
<g>
	<path style="fill:#FFCE54;" d="M437.204,128.246c-5.891,0-10.654-4.773-10.654-10.664V85.608c0-5.891,4.764-10.656,10.654-10.656
		s10.656,4.766,10.656,10.656v31.975C447.86,123.473,443.095,128.246,437.204,128.246z"/>
	<path style="fill:#FFCE54;" d="M479.844,128.246c-5.89,0-10.655-4.773-10.655-10.664V85.608c0-5.891,4.766-10.656,10.655-10.656
		c5.875,0,10.656,4.766,10.656,10.656v31.975C490.5,123.473,485.719,128.246,479.844,128.246z"/>
</g>
<path style="fill:#434A54;" d="M138.779,149.23H96.14c-5.891,0-10.664,4.773-10.664,10.664v95.934c0,4.444,2.758,8.421,6.922,9.976
	c1.219,0.461,2.484,0.68,3.742,0.68c3.015,0,5.968-1.281,8.031-3.648l42.639-48.849c1.687-1.945,2.625-4.438,2.625-7.008v-47.084
	C149.435,154.004,144.662,149.23,138.779,149.23z"/>
<path style="fill:#F5F7FA;" d="M64.157,53.297h21.319c-11.773,0-21.319-9.547-21.319-21.32s9.546-21.32,21.319-21.32h213.187
	c11.781,0,21.312,9.547,21.312,21.32s-9.53,21.32-21.312,21.32H149.435c11.773,0,21.319,9.546,21.319,21.319
	s-9.546,21.32-21.319,21.32h-10.656v21.319c0,11.773-9.546,21.319-21.32,21.319c-11.772,0-21.319-9.546-21.319-21.319v-21.32H64.157
	c-11.773,0-21.312-9.546-21.312-21.32C42.845,62.843,52.384,53.297,64.157,53.297z"/>
<path style="fill:#E6E9ED;" d="M117.459,149.23c-17.632,0-31.983-14.344-31.983-31.976V106.59H64.157
	c-17.632,0-31.975-14.343-31.975-31.976c0-14.717,10-27.155,23.569-30.858c-1.453-3.648-2.25-7.617-2.25-11.781
	C53.501,14.343,67.844,0,85.476,0h213.187c17.624,0,31.983,14.343,31.983,31.975s-14.359,31.983-31.983,31.983H179.59
	c1.18,3.336,1.82,6.921,1.82,10.656c0,17.633-14.343,31.976-31.975,31.976v10.664C149.435,134.887,135.092,149.23,117.459,149.23z
	 M64.157,63.96c-5.875,0-10.656,4.781-10.656,10.656c0,5.883,4.781,10.664,10.656,10.664H96.14c5.882,0,10.656,4.766,10.656,10.656
	v21.319c0,5.875,4.781,10.656,10.663,10.656c5.875,0,10.656-4.781,10.656-10.656v-21.32c0-5.89,4.773-10.656,10.664-10.656h10.656
	c5.875,0,10.656-4.781,10.656-10.664c0-5.875-4.781-10.656-10.656-10.656c-5.89,0-10.656-4.772-10.656-10.663
	c0-5.883,4.766-10.656,10.656-10.656h149.228c5.875,0,10.656-4.781,10.656-10.664c0-5.875-4.781-10.656-10.656-10.656H85.476
	c-5.875,0-10.656,4.781-10.656,10.656c0,5.882,4.781,10.664,10.656,10.664c5.891,0,10.664,4.773,10.664,10.656
	c0,5.891-4.773,10.663-10.664,10.663L64.157,63.96L64.157,63.96z"/>
<path style="fill:#434A54;" d="M334.803,362.425c-4.172,0-8.141-2.468-9.844-6.562c-2.266-5.438,0.297-11.672,5.734-13.938
	c27.593-11.5,50.889-27.03,69.248-46.153c14.655-15.25,26.249-32.859,34.481-52.327c14.141-33.467,13.453-61.271,13.438-61.544
	c-0.172-5.875,4.438-10.804,10.297-11c5.875-0.195,10.812,4.382,11.016,10.257c0.047,1.289,0.953,31.991-14.703,69.599
	c-9.188,22.046-22.188,41.999-38.67,59.278c-20.483,21.483-46.358,38.827-76.903,51.561
	C337.553,362.159,336.162,362.425,334.803,362.425z"/>
<path style="fill:#FFCE54;" d="M466.61,345.082L242.736,88.92c-2.023-2.312-4.953-3.641-8.023-3.641
	c-3.078,0-6.007,1.328-8.031,3.641L2.808,345.082c-2.758,3.141-3.414,7.609-1.68,11.422c1.727,3.796,5.523,6.249,9.703,6.249h53.326
	v138.573c0,5.891,4.773,10.656,10.664,10.656h319.777c5.891,0,10.656-4.766,10.656-10.656V362.753h53.325
	c4.188,0,7.984-2.453,9.719-6.249C470.016,352.691,469.36,348.222,466.61,345.082z"/>
<g>
	<path style="fill:#ED5564;" d="M468.298,356.504c1.719-3.812,1.062-8.281-1.688-11.422L242.736,88.92
		c-2.023-2.312-4.953-3.641-8.023-3.641c-3.078,0-6.007,1.328-8.031,3.641L2.808,345.082c-2.758,3.141-3.414,7.609-1.68,11.422
		c1.727,3.796,5.523,6.249,9.703,6.249h53.326l170.556-191.867l170.541,191.867h53.325
		C462.766,362.753,466.563,360.3,468.298,356.504z"/>
	<path style="fill:#ED5564;" d="M288.008,362.753H181.41c-5.882,0-10.656,4.766-10.656,10.656v138.573h127.909V373.409
		C298.663,367.518,293.883,362.753,288.008,362.753z"/>
</g>
<path style="fill:#434A54;" d="M210.238,429.828c4.164,4.156,4.164,10.906,0,15.078c-4.164,4.156-10.914,4.156-15.078,0
	c-4.156-4.172-4.156-10.922,0-15.078C199.324,425.673,206.074,425.673,210.238,429.828z"/>
<path style="fill:#656D78;" d="M501.155,106.927h-85.277c-5.874,0-10.655,4.773-10.655,10.656v21.319
	c0,29.39,23.903,53.295,53.294,53.295c29.39,0,53.295-23.905,53.295-53.295v-21.319C511.811,111.7,507.046,106.927,501.155,106.927z
	"/>
</svg>